<svg width="512" height="512" viewBox="0 0 512 512" fill="none" xmlns="http://www.w3.org/2000/svg">
<rect width="512" height="512" fill="white"/>
<path d="M39.4 325V184.84H81.064C90.536 184.84 98.728 186.632 105.64 190.216C112.68 193.8 118.12 198.856 121.96 205.384C125.8 211.912 127.72 219.656 127.72 228.616V281.032C127.72 289.864 125.8 297.608 121.96 304.264C118.12 310.792 112.68 315.912 105.64 319.624C98.728 323.208 90.536 325 81.064 325H39.4ZM63.4 302.92H81.064C87.976 302.92 93.48 301 97.576 297.16C101.672 293.192 103.72 287.816 103.72 281.032V228.616C103.72 221.96 101.672 216.712 97.576 212.872C93.48 208.904 87.976 206.92 81.064 206.92H63.4V302.92ZM154.717 325V184.84H199.069C208.413 184.84 216.477 186.568 223.261 190.024C230.173 193.48 235.549 198.344 239.389 204.616C243.229 210.76 245.149 218.056 245.149 226.504C245.149 235.72 242.781 243.848 238.045 250.888C233.437 257.928 227.165 262.92 219.229 265.864L247.069 325H220.189L195.805 269.32H178.717V325H154.717ZM178.717 248.2H199.069C205.853 248.2 211.165 246.344 215.005 242.632C218.845 238.92 220.765 233.8 220.765 227.272C220.765 220.616 218.845 215.432 215.005 211.72C211.165 207.88 205.853 205.96 199.069 205.96H178.717V248.2ZM272.53 325V303.88H300.754V205.96H272.53V184.84H353.17V205.96H324.946V303.88H353.17V325H272.53ZM381.127 325V184.84H409.543L423.175 229.384C424.583 233.864 425.735 237.96 426.631 241.672C427.527 245.384 428.103 248.072 428.359 249.736C428.615 248.072 429.191 245.384 430.087 241.672C430.983 237.96 432.071 233.864 433.351 229.384L446.407 184.84H474.823V325H452.359V281.416C452.359 275.016 452.551 268.04 452.935 260.488C453.319 252.936 453.767 245.384 454.279 237.832C454.791 230.28 455.367 223.112 456.007 216.328C456.775 209.544 457.415 203.592 457.927 198.472L439.111 264.712H417.223L397.831 198.472C398.471 203.336 399.111 209.096 399.751 215.752C400.391 222.28 400.967 229.32 401.479 236.872C402.119 244.296 402.631 251.848 403.015 259.528C403.399 267.208 403.591 274.504 403.591 281.416V325H381.127Z" fill="black"/>
</svg>
